<svg width="12" height="13" viewBox="0 0 12 13" fill="none" xmlns="http://www.w3.org/2000/svg">
<path d="M4.33333 10.6667C4.13555 10.6667 3.94221 10.7253 3.77776 10.8352C3.61331 10.9451 3.48514 11.1013 3.40945 11.284C3.33377 11.4667 3.31396 11.6678 3.35255 11.8618C3.39113 12.0557 3.48637 12.2339 3.62623 12.3738C3.76608 12.5136 3.94426 12.6089 4.13824 12.6475C4.33222 12.686 4.53329 12.6662 4.71602 12.5905C4.89874 12.5149 5.05492 12.3867 5.1648 12.2222C5.27468 12.0578 5.33333 11.8644 5.33333 11.6667C5.33333 11.4015 5.22798 11.1471 5.04044 10.9596C4.8529 10.772 4.59855 10.6667 4.33333 10.6667ZM11.3333 8.66667H3.33333C3.15652 8.66667 2.98695 8.59643 2.86193 8.47141C2.7369 8.34638 2.66667 8.17681 2.66667 8C2.66667 7.82319 2.7369 7.65362 2.86193 7.5286C2.98695 7.40357 3.15652 7.33333 3.33333 7.33333H8.99414C9.42842 7.33193 9.85056 7.18983 10.1973 6.92833C10.544 6.66682 10.7966 6.29999 10.9173 5.88281L11.9743 2.18327C12.0026 2.08405 12.0076 1.9796 11.9887 1.87815C11.9698 1.7767 11.9277 1.68101 11.8656 1.59862C11.8034 1.51623 11.723 1.44939 11.6307 1.40335C11.5383 1.35732 11.4365 1.33335 11.3333 1.33333H3.15938C3.02137 0.944906 2.76696 0.608473 2.43082 0.369876C2.09467 0.131279 1.69314 0.0021205 1.28093 0H0.666667C0.489856 0 0.320286 0.0702379 0.195262 0.195262C0.0702379 0.320286 0 0.489856 0 0.666667C0 0.843478 0.0702379 1.01305 0.195262 1.13807C0.320286 1.2631 0.489856 1.33333 0.666667 1.33333H1.28093C1.42565 1.33384 1.56631 1.38121 1.68186 1.46835C1.7974 1.5555 1.88161 1.67772 1.92187 1.81673L2.02555 2.17989L2.02571 2.18327L3.11947 6.01139C2.61051 6.06614 2.14192 6.31396 1.81018 6.70382C1.47844 7.09367 1.30881 7.59589 1.33622 8.10705C1.36363 8.61821 1.58598 9.0994 1.95751 9.45155C2.32903 9.8037 2.82144 9.99999 3.33333 10H11.3333C11.5101 10 11.6797 9.92976 11.8047 9.80474C11.9298 9.67971 12 9.51014 12 9.33333C12 9.15652 11.9298 8.98695 11.8047 8.86193C11.6797 8.7369 11.5101 8.66667 11.3333 8.66667ZM10.4495 2.66667L9.63541 5.51627C9.59519 5.6554 9.51096 5.77774 9.39535 5.86495C9.27973 5.95216 9.13896 5.99955 8.99414 6H4.50293L4.33297 5.40519L3.55095 2.66667H10.4495ZM9.66667 10.6667C9.46889 10.6667 9.27555 10.7253 9.1111 10.8352C8.94665 10.9451 8.81847 11.1013 8.74279 11.284C8.6671 11.4667 8.6473 11.6678 8.68588 11.8618C8.72447 12.0557 8.81971 12.2339 8.95956 12.3738C9.09941 12.5136 9.2776 12.6089 9.47158 12.6475C9.66556 12.686 9.86662 12.6662 10.0493 12.5905C10.2321 12.5149 10.3883 12.3867 10.4981 12.2222C10.608 12.0578 10.6667 11.8644 10.6667 11.6667C10.6667 11.4015 10.5613 11.1471 10.3738 10.9596C10.1862 10.772 9.93188 10.6667 9.66667 10.6667Z" fill="white"/>
</svg>
