<svg width="29" height="29" viewBox="0 0 29 29" fill="none" xmlns="http://www.w3.org/2000/svg">
<path d="M28.3017 26.2649L22.9801 20.9863C25.0458 18.4108 26.0461 15.1416 25.7755 11.8512C25.5048 8.56069 23.9837 5.49897 21.525 3.29556C19.0662 1.09215 15.8567 -0.0854742 12.5563 0.00483526C9.25599 0.0951447 6.11567 1.44652 3.7811 3.7811C1.44652 6.11567 0.0951447 9.25599 0.00483526 12.5563C-0.0854742 15.8567 1.09215 19.0662 3.29556 21.525C5.49897 23.9837 8.5607 25.5048 11.8512 25.7755C15.1416 26.0461 18.4108 25.0458 20.9863 22.9801L26.2649 28.2587C26.3982 28.3931 26.5569 28.4998 26.7317 28.5726C26.9064 28.6455 27.0939 28.6829 27.2833 28.6829C27.4726 28.6829 27.6601 28.6455 27.8349 28.5726C28.0097 28.4998 28.1683 28.3931 28.3017 28.2587C28.5602 27.9912 28.7047 27.6338 28.7047 27.2618C28.7047 26.8898 28.5602 26.5323 28.3017 26.2649ZM12.9394 22.9801C10.9536 22.9801 9.01231 22.3913 7.36113 21.288C5.70995 20.1847 4.42301 18.6165 3.66305 16.7818C2.90309 14.9471 2.70425 12.9283 3.09168 10.9806C3.4791 9.03289 4.43538 7.24381 5.8396 5.8396C7.24381 4.43538 9.03289 3.4791 10.9806 3.09168C12.9283 2.70425 14.9471 2.90309 16.7818 3.66305C18.6165 4.42301 20.1847 5.70995 21.288 7.36113C22.3913 9.01231 22.9801 10.9536 22.9801 12.9394C22.9801 15.6024 21.9223 18.1563 20.0393 20.0393C18.1563 21.9223 15.6024 22.9801 12.9394 22.9801Z" fill="#333333"/>
</svg>
